<?xml version='1.0' encoding='utf-8'?>
<svg xmlns="http://www.w3.org/2000/svg" viewBox="0 0 368.8 121.9" width="368.8" height="121.9">
  <title>AImation Logo (Transparent - Light Text)</title>
  <desc>AImation - KI-Automatisierung für KMUs</desc>
  <g id="logo">
    <path d="M18 0 202 700H432L616 0H480L442 154H192L154 0ZM223 276H411L326 617H308Z" fill="#ffffff" transform="translate(20.00, 85.85) scale(0.072000, -0.072000)" />
    <path d="M66 0V700H198V0Z" fill="#ffffff" transform="translate(65.65, 85.85) scale(0.072000, -0.072000)" />
    <path d="M150 -14Q109 -14 81.5 12.5Q54 39 54 81Q54 123 81.5 149.5Q109 176 150 176Q190 176 217.0 149.5Q244 123 244 81Q244 39 217.0 12.5Q190 -14 150 -14Z" fill="#f90093" transform="translate(84.66, 85.85) scale(0.072000, -0.072000)" />
    <path d="M83 0V489H160V428H174Q188 454 220.0 476.0Q252 498 310 498Q367 498 402.5 473.0Q438 448 454 412H468Q485 448 519.5 473.0Q554 498 616 498Q665 498 702.0 478.0Q739 458 760.5 420.5Q782 383 782 331V0H703V324Q703 373 674.5 401.5Q646 430 595 430Q541 430 506.5 395.0Q472 360 472 294V0H393V324Q393 373 364.5 401.5Q336 430 285 430Q231 430 196.5 395.0Q162 360 162 294V0Z" fill="#ffffff" transform="translate(106.11, 85.85) scale(0.072000, -0.072000)" />
    <path d="M233 -14Q182 -14 140.0 4.0Q98 22 74.0 56.0Q50 90 50 139Q50 189 74.0 221.5Q98 254 140.0 270.5Q182 287 234 287H399V323Q399 375 368.5 405.0Q338 435 278 435Q219 435 186.0 406.5Q153 378 141 330L67 354Q79 395 105.0 428.5Q131 462 174.5 482.5Q218 503 279 503Q373 503 425.0 454.5Q477 406 477 318V97Q477 67 505 67H550V0H481Q448 0 428.0 18.5Q408 37 408 68V73H396Q385 54 366.5 33.5Q348 13 316.0 -0.5Q284 -14 233 -14ZM242 54Q312 54 355.5 95.5Q399 137 399 212V223H237Q190 223 159.5 202.5Q129 182 129 141Q129 100 160.5 77.0Q192 54 242 54Z" fill="#ffffff" transform="translate(168.03, 85.85) scale(0.072000, -0.072000)" />
    <path d="M263 0Q221 0 198.5 23.0Q176 46 176 86V420H29V489H176V663H255V489H415V420H255V98Q255 68 284 68H393V0Z" fill="#ffffff" transform="translate(209.43, 85.85) scale(0.072000, -0.072000)" />
    <path d="M83 0V489H162V0ZM123 565Q97 565 79.5 582.0Q62 599 62 625Q62 652 79.5 669.0Q97 686 123 686Q149 686 166.0 669.0Q183 652 183 625Q183 599 166.0 582.0Q149 565 123 565Z" fill="#ffffff" transform="translate(242.55, 85.85) scale(0.072000, -0.072000)" />
    <path d="M309 -14Q235 -14 178.5 17.0Q122 48 90.5 104.5Q59 161 59 238V251Q59 327 90.5 384.0Q122 441 178.5 472.0Q235 503 309 503Q383 503 439.5 472.0Q496 441 527.5 384.0Q559 327 559 251V238Q559 161 527.5 104.5Q496 48 439.5 17.0Q383 -14 309 -14ZM309 57Q387 57 433.5 106.5Q480 156 480 240V249Q480 333 433.5 382.5Q387 432 309 432Q232 432 185.0 382.5Q138 333 138 249V240Q138 156 185.0 106.5Q232 57 309 57Z" fill="#ffffff" transform="translate(260.19, 85.85) scale(0.072000, -0.072000)" />
    <path d="M83 0V489H160V406H174Q190 441 228.5 469.5Q267 498 342 498Q397 498 440.5 475.0Q484 452 510.0 407.0Q536 362 536 296V0H457V290Q457 363 420.5 396.0Q384 429 322 429Q251 429 206.5 383.0Q162 337 162 246V0Z" fill="#ffffff" transform="translate(304.69, 85.85) scale(0.072000, -0.072000)" />
  </g>
</svg>