<svg xmlns="http://www.w3.org/2000/svg" width="960" height="540" viewBox="0 0 960 540" role="img" aria-labelledby="title desc"><title id="title">KI-EINFÜHRUNG</title><desc id="desc">Lernen verändert den nächsten Schritt.</desc><defs><pattern id="grid" width="40" height="40" patternUnits="userSpaceOnUse"><path d="M40 0H0V40" fill="none" stroke="#8fb6db" stroke-opacity=".055"/></pattern><radialGradient id="glow"><stop stop-color="#21333d"/><stop offset="1" stop-color="#071013"/></radialGradient><marker id="arrow" viewBox="0 0 10 10" refX="8" refY="5" markerWidth="7" markerHeight="7" orient="auto-start-reverse"><path d="M1 1L8 5L1 9" fill="none" stroke="#8fa6b5" stroke-width="1.5"/></marker></defs><rect width="960" height="540" fill="url(#glow)"/><rect width="960" height="540" fill="url(#grid)"/><g font-family="Arial, Helvetica, sans-serif"><text x="40" y="49" fill="#acb8c1" font-size="22" font-weight="500" text-anchor="start">KI-EINFÜHRUNG</text><text x="40" y="92" fill="#eef1f3" font-size="32" font-weight="600" text-anchor="start">Lernen verändert den nächsten Schritt.</text><path d="M100 186 L865 186" fill="none" stroke="#52636f" stroke-width="3" /><text x="100" y="157" fill="#acb8c1" font-size="24" font-weight="500" text-anchor="start">Plan</text><path d="M100 365 C240 170 310 440 435 305 S535 460 670 305 S780 265 865 365" fill="none" stroke="#8fa6b5" stroke-width="4" marker-end="url(#arrow)"/><circle cx="100" cy="365" r="9" fill="#c5d2da"/><text x="100" y="418" fill="#eef1f3" font-size="26" font-weight="500" text-anchor="middle">Start</text><circle cx="435" cy="305" r="9" fill="#c5d2da"/><text x="435" y="358" fill="#eef1f3" font-size="26" font-weight="500" text-anchor="middle">Pilot</text><circle cx="670" cy="305" r="9" fill="#c5d2da"/><text x="670" y="358" fill="#eef1f3" font-size="26" font-weight="500" text-anchor="middle">Lernen</text><circle cx="865" cy="365" r="9" fill="#c5d2da"/><text x="865" y="418" fill="#eef1f3" font-size="26" font-weight="500" text-anchor="middle">Anpassen</text><path d="M40 483 L920 483" fill="none" stroke="#34434e" stroke-width="3" /><text x="40" y="514" fill="#acb8c1" font-size="18" font-weight="500" text-anchor="start">Prinzipdarstellung · keine Produktoberfläche</text><text x="920" y="514" fill="#eef1f3" font-size="19" font-weight="500" text-anchor="end">AImation</text></g></svg>
