<svg xmlns="http://www.w3.org/2000/svg" width="960" height="540" viewBox="0 0 960 540" role="img" aria-labelledby="title desc"><title id="title">BEISPIEL: ENTWICKLUNGSWISSEN</title><desc id="desc">Warum wurde das Bauteil geändert?</desc><defs><pattern id="grid" width="40" height="40" patternUnits="userSpaceOnUse"><path d="M40 0H0V40" fill="none" stroke="#8fb6db" stroke-opacity=".055"/></pattern><radialGradient id="glow"><stop stop-color="#21333d"/><stop offset="1" stop-color="#071013"/></radialGradient><marker id="arrow" viewBox="0 0 10 10" refX="8" refY="5" markerWidth="7" markerHeight="7" orient="auto-start-reverse"><path d="M1 1L8 5L1 9" fill="none" stroke="#8fa6b5" stroke-width="1.5"/></marker></defs><rect width="960" height="540" fill="url(#glow)"/><rect width="960" height="540" fill="url(#grid)"/><g font-family="Arial, Helvetica, sans-serif"><text x="40" y="49" fill="#acb8c1" font-size="22" font-weight="500" text-anchor="start">BEISPIEL: ENTWICKLUNGSWISSEN</text><text x="40" y="92" fill="#eef1f3" font-size="32" font-weight="600" text-anchor="start">Warum wurde das Bauteil geändert?</text><rect x="50" y="146" width="410" height="293" rx="16" fill="#101a20" stroke="#8fa6b5" stroke-width="2"/><text x="80" y="194" fill="#eef1f3" font-size="28" font-weight="500" text-anchor="start">Frage zum Bauteil</text><g transform="translate(155 292) scale(0.75)" fill="none" stroke="#8fa6b5" stroke-width="3"><path d="M-60 -44 L26 -70 L76 -32 L76 43 L-10 70 L-60 30 Z M-60 -44 L-10 -6 L76 -32 M-10 -6 V70"/><ellipse cx="-31" cy="9" rx="16" ry="25" transform="rotate(-22 -31 9)"/><path d="M-46 -28 L-23 -35 M4 -43 L25 -50 M12 14 L53 1 M12 32 L53 19"/></g><text x="325" y="276" fill="#eef1f3" font-size="24" font-weight="500" text-anchor="middle">Änderung</text><text x="325" y="310" fill="#eef1f3" font-size="24" font-weight="500" text-anchor="middle">nachvollziehen</text><path d="M463 292 L515 292" fill="none" stroke="#8fa6b5" stroke-width="3" marker-end="url(#arrow)"/><rect x="535" y="146" width="374" height="293" rx="16" fill="#101a20" stroke="#c5d2da" stroke-width="2"/><text x="562" y="196" fill="#eef1f3" font-size="28" font-weight="500" text-anchor="start">Antwort mit Belegen</text><text x="566" y="265" fill="#eef1f3" font-size="26" font-weight="500" text-anchor="start">Änderungsgrund</text><text x="566" y="327" fill="#acb8c1" font-size="26" font-weight="500" text-anchor="start">↗ Prüfbericht</text><text x="566" y="389" fill="#acb8c1" font-size="26" font-weight="500" text-anchor="start">↗ Freigabeprotokoll</text><path d="M40 483 L920 483" fill="none" stroke="#34434e" stroke-width="3" /><text x="40" y="514" fill="#acb8c1" font-size="18" font-weight="500" text-anchor="start">Illustratives Beispiel · keine tatsächliche Projektentscheidung</text><text x="920" y="514" fill="#eef1f3" font-size="19" font-weight="500" text-anchor="end">AImation</text></g></svg>
