<svg xmlns="http://www.w3.org/2000/svg" width="960" height="540" viewBox="0 0 960 540" role="img" aria-labelledby="title desc"><title id="title">BEISPIEL: PRIOR ART</title><desc id="desc">Treffer allein sind noch keine Bewertung.</desc><defs><pattern id="grid" width="40" height="40" patternUnits="userSpaceOnUse"><path d="M40 0H0V40" fill="none" stroke="#8fb6db" stroke-opacity=".055"/></pattern><radialGradient id="glow"><stop stop-color="#21333d"/><stop offset="1" stop-color="#071013"/></radialGradient><marker id="arrow" viewBox="0 0 10 10" refX="8" refY="5" markerWidth="7" markerHeight="7" orient="auto-start-reverse"><path d="M1 1L8 5L1 9" fill="none" stroke="#8fa6b5" stroke-width="1.5"/></marker></defs><rect width="960" height="540" fill="url(#glow)"/><rect width="960" height="540" fill="url(#grid)"/><g font-family="Arial, Helvetica, sans-serif"><text x="40" y="49" fill="#acb8c1" font-size="22" font-weight="500" text-anchor="start">BEISPIEL: PRIOR ART</text><text x="40" y="92" fill="#eef1f3" font-size="32" font-weight="600" text-anchor="start">Treffer allein sind noch keine Bewertung.</text><rect x="50" y="168" width="250" height="247" rx="16" fill="#101a20" stroke="#8fa6b5" stroke-width="2"/><text x="175" y="219" fill="#eef1f3" font-size="29" font-weight="500" text-anchor="middle">Merkmal</text><g transform="translate(175 288) scale(0.55)" fill="none" stroke="#8fa6b5" stroke-width="3"><path d="M-60 -44 L26 -70 L76 -32 L76 43 L-10 70 L-60 30 Z M-60 -44 L-10 -6 L76 -32 M-10 -6 V70"/><ellipse cx="-31" cy="9" rx="16" ry="25" transform="rotate(-22 -31 9)"/><path d="M-46 -28 L-23 -35 M4 -43 L25 -50 M12 14 L53 1 M12 32 L53 19"/></g><text x="175" y="382" fill="#eef1f3" font-size="22" font-weight="500" text-anchor="middle">Was wird gesucht?</text><path d="M307 285 L342 285" fill="none" stroke="#8fa6b5" stroke-width="3" marker-end="url(#arrow)"/><rect x="355" y="168" width="250" height="247" rx="16" fill="#101a20" stroke="#8fa6b5" stroke-width="2"/><text x="480" y="219" fill="#eef1f3" font-size="29" font-weight="500" text-anchor="middle">Fundstelle</text><rect x="442" y="249" width="76" height="80" rx="7" fill="#14212a" stroke="#8fa6b5" stroke-width="2"/><path d="M460 279 L500 279" fill="none" stroke="#8fa6b5" stroke-width="3" /><path d="M460 302 L500 302" fill="none" stroke="#8fa6b5" stroke-width="3" /><path d="M460 325 L485 325" fill="none" stroke="#8fa6b5" stroke-width="3" /><text x="480" y="382" fill="#eef1f3" font-size="22" font-weight="500" text-anchor="middle">Wo ist es belegt?</text><path d="M612 285 L647 285" fill="none" stroke="#8fa6b5" stroke-width="3" marker-end="url(#arrow)"/><rect x="660" y="168" width="250" height="247" rx="16" fill="#101a20" stroke="#c5d2da" stroke-width="2"/><text x="785" y="219" fill="#eef1f3" font-size="29" font-weight="500" text-anchor="middle">Einordnung</text><rect x="747" y="249" width="76" height="80" rx="7" fill="#14212a" stroke="#8fa6b5" stroke-width="2"/><path d="M765 279 L805 279" fill="none" stroke="#8fa6b5" stroke-width="3" /><path d="M765 302 L805 302" fill="none" stroke="#8fa6b5" stroke-width="3" /><path d="M765 325 L790 325" fill="none" stroke="#8fa6b5" stroke-width="3" /><text x="785" y="382" fill="#eef1f3" font-size="22" font-weight="500" text-anchor="middle">Was bedeutet es?</text><path d="M40 483 L920 483" fill="none" stroke="#34434e" stroke-width="3" /><text x="40" y="514" fill="#acb8c1" font-size="18" font-weight="500" text-anchor="start">Prinzipdarstellung · Fundstellen fachlich einordnen</text><text x="920" y="514" fill="#eef1f3" font-size="19" font-weight="500" text-anchor="end">AImation</text></g></svg>
